<?xml version="1.0" encoding="UTF-8" standalone="no"?>
<!DOCTYPE svg PUBLIC "-//W3C//DTD SVG 1.1//EN" "http://www.w3.org/Graphics/SVG/1.1/DTD/svg11.dtd">
<svg width="100%" height="100%" viewBox="0 0 1024 1024" version="1.1" xmlns="http://www.w3.org/2000/svg" xmlns:xlink="http://www.w3.org/1999/xlink" xml:space="preserve" xmlns:serif="http://www.serif.com/" style="fill-rule:evenodd;clip-rule:evenodd;stroke-linejoin:round;stroke-miterlimit:2;">
    <g id="Fuel">
        <g transform="matrix(1,0,0,1,710,622)">
            <rect x="0" y="0" width="46" height="175" style="fill:rgb(218,0,80);fill-rule:nonzero;"/>
        </g>
        <g id="e-with-cutout" serif:id="e with cutout">
            <path d="M664,677C676.001,686.728 681.434,700.136 684,715L684,740L603,740C603.895,752.19 603.895,752.19 610.5,761.375C616.426,765.227 620.965,765.661 628,765C630.856,764.235 633.283,763.213 636,762C636.99,761.67 637.98,761.34 639,761C640.184,758.624 640.184,758.624 641,756C641.495,754.515 641.495,754.515 642,753L683,753C683,765.142 678.859,774.174 670.34,782.82C669.568,783.54 668.796,784.259 668,785C667.3,785.657 666.6,786.315 665.879,786.992C649.709,800.818 627.033,800.362 607,799C592.612,796.983 579.204,789.143 570,778C565.325,771.547 562.304,764.604 560,757C559.64,755.889 559.281,754.778 558.91,753.633C557.315,747.067 557.651,740.217 557.688,733.5C557.69,732.784 557.692,732.068 557.695,731.33C557.803,711.356 560.263,695.228 574.762,680.145C598.842,657.073 638.031,657.153 664,677ZM599,716L648,715C648,715 648.634,703.654 637,699C632,697 635,695 624,695C614.945,695 613.607,697.44 609,700C600,705 599,716 599,716Z" style="fill:rgb(217,0,80);fill-rule:nonzero;"/>
        </g>
        <g transform="matrix(1,0,0,1,404,666)">
            <path d="M0,0L46,0C46.026,5.754 46.052,11.509 46.078,17.438C46.103,21.092 46.13,24.747 46.16,28.402C46.208,34.198 46.252,39.994 46.271,45.79C46.286,50.465 46.321,55.139 46.368,59.814C46.383,61.594 46.391,63.374 46.392,65.153C46.394,67.655 46.421,70.155 46.454,72.656C46.449,73.385 46.444,74.114 46.439,74.864C46.548,80.277 48.036,84.458 51,89C55.549,93.327 59.452,94.436 65.586,94.336C69.769,93.754 73.064,92.018 76,89C79.416,83.583 80.59,78.998 80.546,72.656C80.561,71.469 80.561,71.469 80.577,70.259C80.606,67.672 80.608,65.087 80.609,62.5C80.624,60.695 80.641,58.891 80.659,57.086C80.703,52.358 80.723,47.63 80.738,42.902C80.761,37.218 80.814,31.533 80.861,25.849C80.93,17.232 80.961,8.617 81,0L128,0L128,131L83,131L83,109L80,109C79.722,110.238 79.722,110.238 79.438,111.5C76.115,119.59 68.761,126.174 60.961,130C48.213,135.119 34.39,133.621 21.68,129.191C13.408,125.542 7.963,118.876 4.105,110.883C1.12,103.098 -0.443,96.219 -0.341,87.869C-0.341,86.911 -0.341,85.954 -0.342,84.968C-0.34,81.84 -0.317,78.713 -0.293,75.586C-0.287,73.403 -0.283,71.22 -0.28,69.037C-0.269,63.319 -0.239,57.602 -0.206,51.884C-0.17,45.009 -0.156,38.134 -0.139,31.259C-0.11,20.839 -0.052,10.42 0,0Z" style="fill:rgb(217,1,80);fill-rule:nonzero;"/>
        </g>
        <g transform="matrix(1,0,0,1,267,631)">
            <path d="M0,0L116,0L116,37L48,37L48,70L110,70L110,107L48,107L48,166L0,166L0,0Z" style="fill:rgb(217,0,80);fill-rule:nonzero;"/>
        </g>
    </g>
</svg>
