<?xml version="1.0" encoding="UTF-8" standalone="no"?>
<!DOCTYPE svg PUBLIC "-//W3C//DTD SVG 1.1//EN" "http://www.w3.org/Graphics/SVG/1.1/DTD/svg11.dtd">
<svg width="100%" height="100%" viewBox="0 0 1024 1024" version="1.1" xmlns="http://www.w3.org/2000/svg" xmlns:xlink="http://www.w3.org/1999/xlink" xml:space="preserve" xmlns:serif="http://www.serif.com/" style="fill-rule:evenodd;clip-rule:evenodd;stroke-linejoin:round;stroke-miterlimit:2;">
    <g id="nozzle">
        <g transform="matrix(1,0,0,1,511.125,325.938)">
            <path d="M0,0C1.801,0.185 3.602,0.369 5.402,0.553C9.47,0.97 13.538,1.388 17.604,1.822C19.188,1.99 20.774,2.153 22.359,2.312C23.562,2.436 23.562,2.436 24.789,2.563C25.872,2.672 25.872,2.672 26.976,2.784C29.47,3.15 31.57,4.063 33.875,5.063C48.212,9.083 48.212,9.083 62.438,7.688C64.726,6.277 64.726,6.277 65.875,5.063C68.951,5.102 71.993,5.211 75.063,5.375C76.459,5.449 76.459,5.449 77.884,5.524C80.882,5.692 83.878,5.875 86.875,6.063C87.872,6.123 88.869,6.184 89.896,6.246C92.828,6.434 95.757,6.65 98.688,6.875C99.587,6.933 100.486,6.991 101.413,7.05C108.614,7.656 114.825,9.535 119.875,14.938C122.074,18.374 122.35,20.069 121.875,24.063C119.014,25.671 116.862,26.338 113.59,26.477C112.693,26.515 111.796,26.554 110.872,26.594C109.358,26.64 109.358,26.64 107.813,26.688C106.718,26.725 105.624,26.762 104.497,26.8C75.039,27.642 45.479,27.496 16.035,26.281C6.038,25.903 -3.388,25.914 -13.25,27.75C-14.617,27.973 -14.617,27.973 -16.012,28.201C-28.445,30.456 -35.823,35.523 -43,45.75C-43.442,46.369 -43.884,46.988 -44.339,47.626C-46.786,51.074 -49.059,54.57 -51.25,58.188C-54.053,62.419 -57.176,64.794 -62.125,66.063C-66,66 -66,66 -69.125,65.063C-71.847,60.979 -71.547,57.851 -71.125,53.063C-70.469,50.328 -69.786,47.92 -68.813,45.313C-68.551,44.6 -68.29,43.888 -68.02,43.154C-62.1,27.707 -54.091,8.533 -38.688,0.375C-26.303,-4.188 -12.823,-1.346 0,0Z" style="fill:rgb(5,2,25);fill-rule:nonzero;"/>
        </g>
        <g transform="matrix(1,0,0,1,750,293)">
            <path d="M-0.087,0.112C21.953,1.403 45.538,6.382 65,17C66.229,17.608 67.461,18.211 68.695,18.809C82.705,25.605 95.47,33.795 108,43C108.562,43.41 109.124,43.819 109.703,44.241C123.903,54.601 122.308,54.275 126.671,58.638C129.49,61.091 129.507,60.958 132,63C135.811,66.682 135.83,66.982 137,68C143.24,73.429 148.532,79.8 153.638,86.279C155.201,88.254 156.783,90.214 158.363,92.176C165.732,101.399 172.234,110.707 178,121C178.731,122.274 179.462,123.548 180.195,124.82C182.508,128.856 184.761,132.923 187,137C187.59,138.066 187.59,138.066 188.191,139.154C196.301,153.893 202.942,169.188 209.56,184.642C226.438,226.187 226.438,226.187 251.418,263.031C253,265 253.789,265.739 255,267C256.41,268.469 256.41,268.469 258.063,270.5C262.744,276.016 267.971,280.981 274,285C274.361,287.177 274.361,287.177 274.341,289.909C274.34,290.93 274.34,291.951 274.34,293.002C274.324,294.108 274.309,295.213 274.293,296.352C274.289,297.481 274.284,298.61 274.28,299.773C274.263,303.391 274.226,307.008 274.188,310.625C274.172,313.073 274.159,315.521 274.146,317.969C274.113,323.979 274.063,329.99 274,336C272.394,335.209 270.789,334.415 269.185,333.62C268.291,333.178 267.398,332.737 266.477,332.281C263.659,330.824 261.153,329.165 258.625,327.25C257.714,326.566 256.802,325.881 255.863,325.176C254.918,324.458 253.974,323.74 253,323C251.983,322.251 250.966,321.502 249.918,320.73C236.831,311.067 236.831,311.067 233,307C231.562,305.474 232.597,306.614 230.943,304.32C226.58,300.051 224.831,298.409 222,295C221.33,294.228 220.659,293.456 219.969,292.66C212.86,284.302 206.894,275.238 201,266C200.571,265.333 200.141,264.666 199.699,263.979C188.272,246.039 179.925,226.149 172.031,206.459C169.491,200.13 166.737,193.959 163.793,187.809C162.469,185.032 161.215,182.231 159.988,179.41C136.562,125.674 96.555,75.952 41.008,53.184C27.38,47.852 13.312,43.833 -1.363,43.176C-3.724,43.018 -5.726,42.606 -8,42C-7.491,33.663 -6.091,25.578 -4.416,17.408C-3.994,15.345 -3.528,13.29 -3.172,11.215C-1.434,1.082 -0.936,0.346 -0.087,0.112Z" style="fill:rgb(5,2,25);fill-rule:nonzero;"/>
        </g>
        <g transform="matrix(1,0,0,1,215,375)">
            <path d="M0,0C4.662,8.116 9.232,16.261 13.438,24.625C13.767,25.275 14.096,25.924 14.436,26.594C16.29,30.326 17.721,34.04 19,38C11.8,42.676 4.499,47.072 -3,51.25C-5.033,52.391 -7.066,53.533 -9.098,54.676C-10.097,55.237 -11.096,55.799 -12.125,56.377C-19.457,60.516 -26.726,64.763 -34,69C-34.988,69.575 -35.975,70.149 -36.993,70.741C-40.184,72.597 -43.373,74.455 -46.563,76.313C-47.55,76.887 -48.537,77.462 -49.554,78.054C-55.731,81.657 -61.875,85.311 -68,89C-70.163,90.299 -72.329,91.59 -74.5,92.875C-75.5,93.471 -76.501,94.066 -77.531,94.68C-80,96 -82.446,97.513 -82.848,98.21C-84.914,101.791 -85.098,103.184 -86.434,105.633C-86.912,106.512 -87.391,107.392 -87.884,108.298C-88.397,109.231 -88.909,110.164 -89.438,111.125C-89.968,112.095 -90.499,113.065 -91.045,114.064C-95.02,121.296 -99.115,128.453 -103.271,135.582C-107.348,142.579 -111.279,149.636 -114.973,156.844C-118.941,164.545 -123.107,172.057 -127.75,179.375C-128.198,180.094 -128.645,180.814 -129.106,181.555C-131.601,185.406 -133.639,188.151 -138,190C-144.553,191.102 -150.57,188.107 -156.313,185.313C-157.335,184.823 -157.335,184.823 -158.378,184.323C-163.823,181.519 -167.841,178.187 -170,172.25C-170,164.057 -166.12,156.76 -162.125,149.813C-161.645,148.958 -161.164,148.103 -160.669,147.223C-159.122,144.477 -157.561,141.738 -156,139C-154.97,137.18 -153.942,135.36 -152.914,133.539C-151.323,130.721 -149.731,127.904 -148.135,125.088C-143.739,117.33 -139.392,109.545 -135.063,101.75C-134.448,100.644 -133.833,99.538 -133.2,98.398C-126.817,87.087 -126.817,87.087 -120.807,75.578C-116.214,66.534 -108.733,61.488 -100.125,56.5C-99.272,55.997 -98.419,55.494 -97.54,54.976C-94.7,53.307 -91.851,51.652 -89,50C-87.979,49.406 -86.958,48.812 -85.907,48.2C-73.349,40.895 -60.73,33.701 -48.071,26.574C-41.632,22.942 -35.241,19.235 -28.879,15.469C-22.294,11.572 -15.652,7.78 -9,4C-8.068,3.448 -8.068,3.448 -7.118,2.886C-2.211,0 -2.211,0 0,0Z" style="fill:rgb(5,1,24);fill-rule:nonzero;"/>
        </g>
        <g id="Layer2">
            <path d="M462,195C468.213,201.063 468.995,201.103 473.125,208C473.832,209.181 476.158,212.724 477.676,220C479.784,230.103 479.548,230.77 481.116,235.036C481.612,236.368 481.612,236.368 482.117,237.727C482.389,238.488 482.661,239.249 482.941,240.034C484.332,242.617 485.407,243.59 488,245C490.671,245.388 493.318,245.723 496,246C497.245,246.129 498.49,246.258 499.772,246.39C501.727,246.578 501.727,246.578 503.721,246.769C504.451,246.839 505.181,246.909 505.932,246.981C507.509,247.133 509.085,247.284 510.662,247.435C514.072,247.761 517.481,248.09 520.891,248.419C522.698,248.594 524.505,248.768 526.312,248.942C590.466,255.124 590.466,255.124 620.82,258.741C622.963,258.996 625.106,259.247 627.25,259.498C642.338,261.271 657.337,263.45 672.313,266C673.06,266.127 673.808,266.254 674.579,266.385C683.721,267.951 692.874,269.547 701.767,272.234C704.322,272.917 706.315,273.297 708.787,272.226C709.979,271.509 711.157,270.77 712.321,270.009C716.721,267.364 721.2,267.9 726,269C730.944,270.351 733.805,271.918 737.012,275.891C740.137,282.562 738.569,289.081 737.234,296.016C737.04,297.067 736.846,298.119 736.646,299.202C736.234,301.422 735.817,303.641 735.395,305.859C734.755,309.223 734.132,312.589 733.512,315.957C733.108,318.123 732.703,320.288 732.297,322.453C732.112,323.446 731.913,324.437 731.738,325.462C728.698,343.305 728.513,343.869 724.875,348.063C719.636,351.821 714.519,352.537 708.313,351.375C703.368,350.044 699.443,347.99 696.826,344.373C695.733,341.759 696.206,339.218 694.853,336.468C690.42,337.256 690.307,337.24 688.688,337.688C687.516,338.001 686.344,338.314 685.137,338.637C681.27,340.317 680.774,341.213 679,345C678.136,348.342 677.578,351.72 677.02,355.125C676.846,356.128 676.672,357.13 676.493,358.164C676.12,360.319 675.75,362.476 675.385,364.633C674.418,370.32 673.411,376 672.402,381.68C672.1,383.386 672.1,383.386 671.791,385.128C655.837,474.386 655.837,474.386 635,490L633,490L633,492C630.621,493.875 630.621,493.875 627.438,496C626.405,496.701 625.372,497.402 624.309,498.125C609.901,506.29 590.683,502.064 575.564,498.02C556.448,492.551 537.563,486.132 519.43,477.961C515.144,476.03 510.79,474.358 506.375,472.75C500.956,470.773 495.702,468.574 490.473,466.141C486.376,464.251 482.222,462.588 478,461C477.297,460.734 476.594,460.468 475.87,460.194C455.466,451.989 455.466,451.989 434,452C430.782,453.529 430.782,453.529 427.875,455.5C419.964,460.62 414.359,460.03 405.438,458.375C404.544,458.222 403.65,458.068 402.729,457.91C385.339,454.796 368.208,450.093 351.104,445.716C348.041,444.932 344.977,444.152 341.912,443.373C332.487,440.969 323.093,438.513 313.754,435.794C310.435,434.837 307.108,433.995 303.75,433.188C287.73,429.259 271.68,425.137 256,420C254.465,419.66 254.465,419.66 252.898,419.313C249.001,417.548 247.997,415.055 246.375,411.313C245.698,409.862 245.018,408.413 244.336,406.965C243.968,406.173 243.601,405.382 243.222,404.566C240.939,399.772 238.462,395.078 236,390.375C235.483,389.384 234.967,388.393 234.434,387.373C231.619,381.999 228.738,376.681 225.688,371.438C222.992,366.782 220.398,362.095 217.938,357.313C217.348,356.174 216.759,355.036 216.152,353.863C215,351 215,351 216,348C217.776,346.512 219.622,345.107 221.5,343.75C222.593,342.948 223.685,342.146 224.777,341.344C225.841,340.57 226.904,339.797 228,339C229.695,337.76 231.383,336.511 233.063,335.25C233.755,334.74 234.447,334.229 235.16,333.703C238.761,330.37 240.504,326.041 242.234,321.527C242.64,320.474 243.045,319.421 243.462,318.336C243.887,317.214 244.312,316.093 244.75,314.938C245.198,313.766 245.645,312.594 246.106,311.387C248.611,304.791 251.027,298.174 253.313,291.5C257.711,278.669 262.664,266.044 267.551,253.393C269.131,249.293 270.682,245.183 272.195,241.057C272.869,239.219 273.55,237.384 274.231,235.549C275.055,233.327 275.867,231.1 276.665,228.869C277.034,227.883 277.402,226.898 277.781,225.883C278.091,225.031 278.401,224.179 278.721,223.301C280.39,220.298 282.111,218.852 285,217C287.9,216.286 287.9,216.286 291.156,215.953C292.396,215.806 293.636,215.658 294.914,215.506C295.578,215.428 296.241,215.35 296.925,215.269C300.565,214.797 304.17,214.136 307.781,213.484C309.36,213.203 310.94,212.922 312.519,212.641C313.329,212.496 314.139,212.351 314.974,212.201C330.779,209.378 346.604,206.739 362.468,204.277L369.574,203.172C375.731,202.21 381.88,201.2 388.027,200.176C452.45,189.458 452.45,189.458 462,195ZM640,365C643.623,347.035 629.965,320.623 612,317C612,317 510.195,302.571 510.159,302.564C510.159,302.564 510.159,302.564 510.159,302.564C479,305 457,310 449,325C436.209,342.437 427,361 432,379C432,400 466.341,429.836 483.904,432.766L580,466C597.965,469.623 621.436,459.551 624,427L640,365Z" style="fill:rgb(3,3,3);fill-rule:nonzero;"/>
        </g>
    </g>
</svg>
